<svg xmlns="http://www.w3.org/2000/svg" viewBox="0 0 200 200"><defs><style>.a{fill:#09bb07;}.b{fill:#fff;}</style></defs><title>anyweix-logo</title><circle class="a" cx="89.49" cy="118.22" r="0.02"/><circle class="a" cx="76.33" cy="108.76" r="0.05"/><circle class="a" cx="137.72" cy="113.78" r="0.02"/><circle class="a" cx="134.65" cy="116.47" r="0.02"/><circle class="a" cx="131.35" cy="118.86" r="0.02"/><circle class="a" cx="127.85" cy="120.96" r="0.02"/><circle class="a" cx="124.17" cy="122.72" r="0.06"/><circle class="a" cx="120.35" cy="124.16" r="0.05"/><circle class="a" cx="116.42" cy="125.24" r="0.05"/><circle class="a" cx="112.41" cy="125.97" r="0.05"/><circle class="a" cx="108.35" cy="126.34" r="0.05"/><circle class="a" cx="104.27" cy="126.34" r="0.05"/><circle class="a" cx="100.21" cy="125.97" r="0.05"/><circle class="a" cx="96.2" cy="125.24" r="0.05"/><circle class="a" cx="92.27" cy="124.16" r="0.05"/><circle class="a" cx="88.45" cy="122.72" r="0.09"/><circle class="a" cx="84.78" cy="120.96" r="0.06"/><circle class="a" cx="81.28" cy="118.86" r="0.09"/><circle class="a" cx="77.98" cy="116.47" r="0.05"/><circle class="a" cx="74.91" cy="113.78" r="0.11"/><circle class="a" cx="72.09" cy="110.84" r="0.11"/><circle class="a" cx="69.55" cy="107.65" r="0.05"/><circle class="a" cx="67.3" cy="104.25" r="0.11"/><circle class="a" cx="65.37" cy="100.66" r="0.05"/><circle class="a" cx="63.77" cy="96.91" r="0.09"/><circle class="a" cx="62.51" cy="93.03" r="0.05"/><circle class="a" cx="61.6" cy="89.05" r="0.02"/><circle class="a" cx="63.77" cy="64.97" r="0.02"/><circle class="a" cx="156.3" cy="80.94" r="0.01"/><circle class="a" cx="156.13" cy="85.01" r="0.02"/><circle class="a" cx="155.63" cy="89.06" r="0.02"/><circle class="a" cx="154.81" cy="93.05" r="0.02"/><circle class="a" cx="153.66" cy="96.97" r="0.02"/><circle class="a" cx="152.2" cy="100.77" r="0.02"/><circle class="a" cx="150.43" cy="104.45" r="0.01"/><circle class="a" cx="148.36" cy="107.96" r="0.01"/><circle class="a" cx="146.02" cy="111.3" r="0.02"/><circle class="a" cx="143.41" cy="114.44" r="0.09"/><circle class="a" cx="140.56" cy="117.35" r="0.01"/><circle class="a" cx="137.48" cy="120.02" r="0.06"/><circle class="a" cx="134.19" cy="122.43" r="0.09"/><circle class="a" cx="130.71" cy="124.56" r="0.09"/><circle class="a" cx="127.08" cy="126.41" r="0.06"/><circle class="a" cx="123.3" cy="127.95" r="0.15"/><circle class="a" cx="119.41" cy="129.18" r="0.15"/><circle class="a" cx="115.44" cy="130.09" r="0.18"/><circle class="a" cx="111.4" cy="130.67" r="0.14"/><circle class="a" cx="107.33" cy="130.92" r="0.15"/><circle class="a" cx="103.25" cy="130.83" r="0.14"/><circle class="a" cx="99.2" cy="130.42" r="0.15"/><circle class="a" cx="95.19" cy="129.67" r="0.23"/><circle class="a" cx="91.25" cy="128.6" r="0.27"/><circle class="a" cx="87.42" cy="127.22" r="0.27"/><circle class="a" cx="83.71" cy="125.52" r="0.15"/><circle class="a" cx="80.15" cy="123.53" r="0.2"/><circle class="a" cx="76.76" cy="121.26" r="0.18"/><circle class="a" cx="73.58" cy="118.72" r="0.18"/><circle class="a" cx="70.61" cy="115.92" r="0.2"/><circle class="a" cx="67.87" cy="112.9" r="0.14"/><circle class="a" cx="65.4" cy="109.66" r="0.14"/><circle class="a" cx="63.19" cy="106.23" r="0.18"/><circle class="a" cx="61.28" cy="102.63" r="0.15"/><circle class="a" cx="59.66" cy="98.88" r="0.14"/><circle class="a" cx="58.35" cy="95.02" r="0.11"/><circle class="a" cx="57.36" cy="91.06" r="0.11"/><circle class="a" cx="56.7" cy="87.04" r="0.09"/><circle class="a" cx="56.37" cy="82.98" r="0.06"/><circle class="a" cx="56.37" cy="78.9" r="0.05"/><circle class="a" cx="56.7" cy="74.84" r="0.01"/><circle class="a" cx="57.36" cy="70.81" r="0.02"/><circle class="a" cx="58.35" cy="66.86" r="0.02"/><circle class="a" cx="59.66" cy="62.99" r="0.02"/><circle class="a" cx="67.87" cy="48.98" r="0.01"/><circle class="a" cx="155.63" cy="72.82" r="0.02"/><circle class="a" cx="156.13" cy="76.86" r="0.02"/><circle class="a" cx="160.69" cy="85.01" r="0.02"/><circle class="a" cx="160.23" cy="89.07" r="0.02"/><circle class="a" cx="159.48" cy="93.07" r="0.02"/><circle class="a" cx="158.42" cy="97.01" r="0.02"/><circle class="a" cx="157.07" cy="100.86" r="0.02"/><circle class="a" cx="155.44" cy="104.6" r="0.01"/><circle class="a" cx="153.54" cy="108.2" r="0.02"/><circle class="a" cx="151.37" cy="111.66" r="0.05"/><circle class="a" cx="148.95" cy="114.94" r="0.06"/><circle class="a" cx="146.29" cy="118.03" r="0.11"/><circle class="a" cx="143.4" cy="120.91" r="0.11"/><circle class="a" cx="140.31" cy="123.57" r="0.09"/><circle class="a" cx="137.03" cy="125.99" r="0.09"/><circle class="a" cx="133.58" cy="128.16" r="0.32"/><circle class="a" cx="129.97" cy="130.07" r="0.23"/><circle class="a" cx="126.23" cy="131.7" r="0.14"/><circle class="a" cx="122.39" cy="133.05" r="0.2"/><circle class="a" cx="118.45" cy="134.1" r="0.24"/><circle class="a" cx="114.44" cy="134.86" r="0.24"/><circle class="a" cx="110.39" cy="135.32" r="0.18"/><circle class="a" cx="106.31" cy="135.47" r="0.18"/><circle class="a" cx="102.24" cy="135.32" r="0.27"/><circle class="a" cx="98.18" cy="134.86" r="0.23"/><circle class="a" cx="94.18" cy="134.1" r="0.29"/><circle class="a" cx="90.24" cy="133.05" r="0.39"/><circle class="a" cx="86.39" cy="131.7" r="0.38"/><circle class="a" cx="82.65" cy="130.07" r="0.27"/><circle class="a" cx="79.05" cy="128.16" r="0.39"/><circle class="a" cx="75.59" cy="125.99" r="0.27"/><circle class="a" cx="72.31" cy="123.57" r="0.33"/><circle class="a" cx="69.22" cy="120.91" r="0.29"/><circle class="a" cx="66.34" cy="118.03" r="0.24"/><circle class="a" cx="63.68" cy="114.94" r="0.15"/><circle class="a" cx="61.26" cy="111.66" r="0.18"/><circle class="a" cx="59.09" cy="108.2" r="0.15"/><circle class="a" cx="57.18" cy="104.6" r="0.15"/><circle class="a" cx="55.55" cy="100.86" r="0.14"/><circle class="a" cx="54.2" cy="97.01" r="0.15"/><circle class="a" cx="53.15" cy="93.07" r="0.15"/><circle class="a" cx="52.39" cy="89.07" r="0.14"/><circle class="a" cx="51.93" cy="85.01" r="0.14"/><circle class="a" cx="51.78" cy="80.94" r="0.09"/><circle class="a" cx="51.93" cy="76.86" r="0.06"/><circle class="a" cx="52.39" cy="72.81" r="0.06"/><circle class="a" cx="53.15" cy="68.8" r="0.05"/><circle class="a" cx="54.2" cy="64.87" r="0.02"/><circle class="a" cx="55.55" cy="61.02" r="0.02"/><circle class="a" cx="57.18" cy="57.28" r="0.02"/><circle class="a" cx="59.09" cy="53.67" r="0.02"/><circle class="a" cx="61.26" cy="50.22" r="0.01"/><circle class="a" cx="63.68" cy="46.94" r="0.02"/><circle class="a" cx="66.34" cy="43.85" r="0.02"/><circle class="a" cx="69.22" cy="40.96" r="0.02"/><circle class="a" cx="72.31" cy="38.3" r="0.02"/><circle class="a" cx="75.59" cy="35.88" r="0.02"/><circle class="a" cx="79.05" cy="33.71" r="0.02"/><circle class="a" cx="86.39" cy="30.18" r="0.01"/><circle class="a" cx="160.23" cy="72.81" r="0.02"/><circle class="a" cx="160.69" cy="76.86" r="0.02"/><circle class="a" cx="165.39" cy="80.94" r="0.02"/><circle class="a" cx="165.25" cy="85.01" r="0.02"/><circle class="a" cx="164.83" cy="89.07" r="0.01"/><circle class="a" cx="164.12" cy="93.09" r="0.05"/><circle class="a" cx="163.15" cy="97.05" r="0.05"/><circle class="a" cx="161.9" cy="100.93" r="0.05"/><circle class="a" cx="160.39" cy="104.72" r="0.05"/><circle class="a" cx="158.62" cy="108.39" r="0.01"/><circle class="a" cx="156.6" cy="111.94" r="0.05"/><circle class="a" cx="154.34" cy="115.33" r="0.09"/><circle class="a" cx="151.86" cy="118.56" r="0.09"/><circle class="a" cx="149.15" cy="121.62" r="0.11"/><circle class="a" cx="146.24" cy="124.47" r="0.09"/><circle class="a" cx="143.14" cy="127.13" r="0.2"/><circle class="a" cx="139.87" cy="129.56" r="0.29"/><circle class="a" cx="136.44" cy="131.76" r="0.5"/><circle class="a" cx="132.86" cy="133.71" r="0.5"/><circle class="a" cx="129.15" cy="135.42" r="0.33"/><circle class="a" cx="125.34" cy="136.87" r="0.35"/><circle class="a" cx="121.44" cy="138.04" r="0.29"/><circle class="a" cx="117.46" cy="138.95" r="0.2"/><circle class="a" cx="113.43" cy="139.58" r="0.32"/><circle class="a" cx="109.37" cy="139.93" r="0.24"/><circle class="a" cx="105.29" cy="140.01" r="0.24"/><circle class="a" cx="101.22" cy="139.79" r="0.32"/><circle class="a" cx="97.17" cy="139.3" r="0.39"/><circle class="a" cx="93.17" cy="138.53" r="0.33"/><circle class="a" cx="89.22" cy="137.49" r="0.53"/><circle class="a" cx="85.36" cy="136.18" r="0.65"/><circle class="a" cx="81.6" cy="134.6" r="0.53"/><circle class="a" cx="77.96" cy="132.77" r="0.53"/><circle class="a" cx="74.45" cy="130.69" r="0.59"/><circle class="a" cx="71.09" cy="128.37" r="0.73"/><circle class="a" cx="67.91" cy="125.83" r="0.39"/><circle class="a" cx="64.9" cy="123.07" r="0.39"/><circle class="a" cx="62.09" cy="120.11" r="0.32"/><circle class="a" cx="59.5" cy="116.97" r="0.29"/><circle class="a" cx="57.12" cy="113.65" r="0.29"/><circle class="a" cx="54.98" cy="110.18" r="0.33"/><circle class="a" cx="53.09" cy="106.57" r="0.23"/><circle class="a" cx="51.45" cy="102.84" r="0.15"/><circle class="a" cx="50.06" cy="99" r="0.18"/><circle class="a" cx="48.95" cy="95.08" r="0.18"/><circle class="a" cx="48.11" cy="91.09" r="0.18"/><circle class="a" cx="47.55" cy="87.05" r="0.15"/><circle class="a" cx="47.27" cy="82.98" r="0.09"/><circle class="a" cx="47.27" cy="78.9" r="0.14"/><circle class="a" cx="47.55" cy="74.83" r="0.14"/><circle class="a" cx="48.11" cy="70.79" r="0.06"/><circle class="a" cx="48.95" cy="66.8" r="0.09"/><circle class="a" cx="50.06" cy="62.88" r="0.06"/><circle class="a" cx="51.44" cy="59.04" r="0.02"/><circle class="a" cx="53.09" cy="55.31" r="0.02"/><circle class="a" cx="54.98" cy="51.7" r="0.05"/><circle class="a" cx="57.12" cy="48.22" r="0.05"/><circle class="a" cx="59.5" cy="44.91" r="0.06"/><circle class="a" cx="62.09" cy="41.76" r="0.05"/><circle class="a" cx="64.9" cy="38.81" r="0.05"/><circle class="a" cx="67.91" cy="36.05" r="0.05"/><circle class="a" cx="71.09" cy="33.51" r="0.02"/><circle class="a" cx="74.45" cy="31.19" r="0.02"/><circle class="a" cx="77.96" cy="29.11" r="0.02"/><circle class="a" cx="81.6" cy="27.28" r="0.02"/><circle class="a" cx="163.15" cy="64.83" r="0.02"/><circle class="a" cx="164.12" cy="68.79" r="0.01"/><circle class="a" cx="164.83" cy="72.81" r="0.02"/><circle class="a" cx="165.25" cy="76.86" r="0.02"/><circle class="a" cx="169.93" cy="80.94" r="0.05"/><circle class="a" cx="169.8" cy="85.01" r="0.05"/><circle class="a" cx="169.41" cy="89.07" r="0.05"/><circle class="a" cx="168.76" cy="93.1" r="0.06"/><circle class="a" cx="167.85" cy="97.08" r="0.06"/><circle class="a" cx="166.69" cy="100.99" r="0.14"/><circle class="a" cx="165.28" cy="104.81" r="0.18"/><circle class="a" cx="163.63" cy="108.54" r="0.05"/><circle class="a" cx="161.75" cy="112.16" r="0.05"/><circle class="a" cx="159.63" cy="115.65" r="0.09"/><circle class="a" cx="157.3" cy="118.99" r="0.06"/><circle class="a" cx="154.75" cy="122.18" r="0.09"/><circle class="a" cx="152.01" cy="125.2" r="0.2"/><circle class="a" cx="149.08" cy="128.03" r="0.27"/><circle class="a" cx="145.98" cy="130.68" r="0.2"/><circle class="a" cx="142.71" cy="133.12" r="0.32"/><circle class="a" cx="139.29" cy="135.34" r="0.44"/><circle class="a" cx="135.74" cy="137.34" r="0.6"/><circle class="a" cx="132.06" cy="139.11" r="0.44"/><circle class="a" cx="128.28" cy="140.64" r="0.65"/><circle class="a" cx="124.41" cy="141.93" r="0.65"/><circle class="a" cx="120.47" cy="142.96" r="0.39"/><circle class="a" cx="116.47" cy="143.74" r="0.42"/><circle class="a" cx="112.42" cy="144.26" r="0.5"/><circle class="a" cx="108.35" cy="144.53" r="0.35"/><circle class="a" cx="104.27" cy="144.53" r="0.48"/><circle class="a" cx="100.2" cy="144.26" r="0.54"/><circle class="a" cx="96.16" cy="143.74" r="0.54"/><circle class="a" cx="92.16" cy="142.96" r="0.57"/><circle class="a" cx="88.21" cy="141.93" r="0.76"/><circle class="a" cx="84.34" cy="140.64" r="0.86"/><circle class="a" cx="80.56" cy="139.11" r="0.71"/><circle class="a" cx="76.89" cy="137.34" r="1.04"/><circle class="a" cx="73.33" cy="135.34" r="0.91"/><circle class="a" cx="69.91" cy="133.12" r="0.95"/><circle class="a" cx="66.65" cy="130.68" r="0.83"/><circle class="a" cx="63.54" cy="128.03" r="0.88"/><circle class="a" cx="60.61" cy="125.2" r="0.57"/><circle class="a" cx="57.87" cy="122.18" r="0.48"/><circle class="a" cx="55.33" cy="118.99" r="0.48"/><circle class="a" cx="52.99" cy="115.65" r="0.42"/><circle class="a" cx="50.88" cy="112.16" r="0.33"/><circle class="a" cx="48.99" cy="108.54" r="0.38"/><circle class="a" cx="47.34" cy="104.81" r="0.38"/><circle class="a" cx="45.93" cy="100.99" r="0.39"/><circle class="a" cx="44.77" cy="97.08" r="0.29"/><circle class="a" cx="43.87" cy="93.1" r="0.27"/><circle class="a" cx="43.21" cy="89.07" r="0.32"/><circle class="a" cx="42.82" cy="85.02" r="0.24"/><circle class="a" cx="42.69" cy="80.94" r="0.23"/><circle class="a" cx="42.82" cy="76.86" r="0.2"/><circle class="a" cx="43.21" cy="72.8" r="0.2"/><circle class="a" cx="43.87" cy="68.78" r="0.15"/><circle class="a" cx="44.77" cy="64.8" r="0.09"/><circle class="a" cx="45.93" cy="60.89" r="0.15"/><circle class="a" cx="47.34" cy="57.06" r="0.06"/><circle class="a" cx="48.99" cy="53.33" r="0.09"/><circle class="a" cx="50.88" cy="49.72" r="0.05"/><circle class="a" cx="52.99" cy="46.23" r="0.09"/><circle class="a" cx="55.33" cy="42.89" r="0.06"/><circle class="a" cx="57.87" cy="39.7" r="0.05"/><circle class="a" cx="60.61" cy="36.68" r="0.05"/><circle class="a" cx="63.54" cy="33.84" r="0.01"/><circle class="a" cx="168.76" cy="68.78" r="0.02"/><circle class="a" cx="169.41" cy="72.8" r="0.02"/><circle class="a" cx="169.8" cy="76.86" r="0.02"/><circle class="a" cx="174.48" cy="80.94" r="0.05"/><circle class="a" cx="174.35" cy="85.01" r="0.14"/><circle class="a" cx="173.99" cy="89.08" r="0.11"/><circle class="a" cx="173.38" cy="93.11" r="0.11"/><circle class="a" cx="172.53" cy="97.1" r="0.09"/><circle class="a" cx="171.45" cy="101.03" r="0.29"/><circle class="a" cx="170.13" cy="104.89" r="0.5"/><circle class="a" cx="168.58" cy="108.66" r="0.18"/><circle class="a" cx="166.81" cy="112.34" r="0.39"/><circle class="a" cx="164.83" cy="115.9" r="0.32"/><circle class="a" cx="162.63" cy="119.34" r="0.14"/><circle class="a" cx="160.23" cy="122.64" r="0.24"/><circle class="a" cx="157.64" cy="125.79" r="0.23"/><circle class="a" cx="154.87" cy="128.78" r="0.23"/><circle class="a" cx="151.92" cy="131.59" r="0.38"/><circle class="a" cx="148.81" cy="134.23" r="0.42"/><circle class="a" cx="145.55" cy="136.68" r="0.57"/><circle class="a" cx="142.14" cy="138.92" r="0.57"/><circle class="a" cx="138.61" cy="140.96" r="0.86"/><circle class="a" cx="134.97" cy="142.79" r="0.77"/><circle class="a" cx="131.21" cy="144.39" r="0.65"/><circle class="a" cx="127.38" cy="145.77" r="0.65"/><circle class="a" cx="123.46" cy="146.91" r="0.65"/><circle class="a" cx="119.48" cy="147.82" r="0.53"/><circle class="a" cx="115.46" cy="148.49" r="0.5"/><circle class="a" cx="111.41" cy="148.91" r="0.54"/><circle class="a" cx="107.33" cy="149.1" r="0.6"/><circle class="a" cx="103.25" cy="149.03" r="0.77"/><circle class="a" cx="99.19" cy="148.73" r="0.77"/><circle class="a" cx="95.15" cy="148.18" r="0.85"/><circle class="a" cx="91.14" cy="147.39" r="0.94"/><circle class="a" cx="87.2" cy="146.37" r="0.94"/><circle class="a" cx="83.32" cy="145.11" r="1.06"/><circle class="a" cx="79.52" cy="143.62" r="1.01"/><circle class="a" cx="75.82" cy="141.9" r="1.18"/><circle class="a" cx="72.23" cy="139.97" r="1.06"/><circle class="a" cx="68.76" cy="137.83" r="1.12"/><circle class="a" cx="65.43" cy="135.48" r="1.01"/><circle class="a" cx="62.24" cy="132.94" r="1.22"/><circle class="a" cx="59.21" cy="130.21" r="1.12"/><circle class="a" cx="56.34" cy="127.3" r="1.12"/><circle class="a" cx="53.66" cy="124.23" r="0.8"/><circle class="a" cx="51.17" cy="121" r="0.65"/><circle class="a" cx="48.87" cy="117.63" r="0.7"/><circle class="a" cx="46.78" cy="114.13" r="0.7"/><circle class="a" cx="44.9" cy="110.51" r="0.59"/><circle class="a" cx="43.24" cy="106.79" r="0.48"/><circle class="a" cx="41.81" cy="102.97" r="0.39"/><circle class="a" cx="40.6" cy="99.07" r="0.48"/><circle class="a" cx="39.64" cy="95.11" r="0.32"/><circle class="a" cx="38.91" cy="91.1" r="0.32"/><circle class="a" cx="38.42" cy="87.05" r="0.33"/><circle class="a" cx="38.18" cy="82.98" r="0.32"/><circle class="a" cx="38.18" cy="78.9" r="0.29"/><circle class="a" cx="38.42" cy="74.83" r="0.23"/><circle class="a" cx="38.91" cy="70.78" r="0.24"/><circle class="a" cx="39.64" cy="66.77" r="0.23"/><circle class="a" cx="40.6" cy="62.8" r="0.23"/><circle class="a" cx="41.81" cy="58.91" r="0.15"/><circle class="a" cx="43.24" cy="55.09" r="0.18"/><circle class="a" cx="44.9" cy="51.36" r="0.27"/><circle class="a" cx="46.78" cy="47.74" r="0.14"/><circle class="a" cx="48.87" cy="44.24" r="0.14"/><circle class="a" cx="51.17" cy="40.87" r="0.05"/><circle class="a" cx="53.66" cy="37.65" r="0.06"/><circle class="a" cx="178.56" cy="89.08" r="0.09"/><circle class="a" cx="177.99" cy="93.12" r="0.14"/><circle class="a" cx="177.2" cy="97.12" r="0.11"/><circle class="a" cx="176.18" cy="101.07" r="0.18"/><circle class="a" cx="174.94" cy="104.95" r="0.35"/><circle class="a" cx="173.49" cy="108.76" r="0.53"/><circle class="a" cx="171.82" cy="112.49" r="0.59"/><circle class="a" cx="169.95" cy="116.11" r="0.83"/><circle class="a" cx="167.88" cy="119.62" r="0.35"/><circle class="a" cx="165.61" cy="123.01" r="0.39"/><circle class="a" cx="163.16" cy="126.27" r="0.24"/><circle class="a" cx="160.53" cy="129.39" r="0.39"/><circle class="a" cx="157.72" cy="132.35" r="0.5"/><circle class="a" cx="154.76" cy="135.15" r="0.38"/><circle class="a" cx="151.64" cy="137.78" r="0.76"/><circle class="a" cx="148.39" cy="140.24" r="0.76"/><circle class="a" cx="145" cy="142.5" r="0.77"/><circle class="a" cx="141.48" cy="144.57" r="0.86"/><circle class="a" cx="137.86" cy="146.45" r="1.06"/><circle class="a" cx="134.14" cy="148.11" r="0.88"/><circle class="a" cx="130.33" cy="149.57" r="0.8"/><circle class="a" cx="126.44" cy="150.81" r="0.86"/><circle class="a" cx="122.49" cy="151.82" r="0.94"/><circle class="a" cx="118.49" cy="152.62" r="0.88"/><circle class="a" cx="114.45" cy="153.19" r="0.88"/><circle class="a" cx="110.39" cy="153.53" r="1.01"/><circle class="a" cx="106.31" cy="153.65" r="1.01"/><circle class="a" cx="102.23" cy="153.53" r="1.07"/><circle class="a" cx="98.17" cy="153.19" r="1.04"/><circle class="a" cx="94.13" cy="152.62" r="1.18"/><circle class="a" cx="90.13" cy="151.82" r="1.1"/><circle class="a" cx="86.18" cy="150.81" r="1.13"/><circle class="a" cx="82.3" cy="149.57" r="1.1"/><circle class="a" cx="78.49" cy="148.11" r="1.1"/><circle class="a" cx="74.76" cy="146.45" r="1.18"/><circle class="a" cx="71.14" cy="144.57" r="1.18"/><circle class="a" cx="67.63" cy="142.5" r="1.27"/><circle class="a" cx="64.24" cy="140.24" r="1.12"/><circle class="a" cx="60.98" cy="137.78" r="1.18"/><circle class="a" cx="57.86" cy="135.15" r="1.26"/><circle class="a" cx="54.9" cy="132.35" r="1.3"/><circle class="a" cx="52.1" cy="129.39" r="1.25"/><circle class="a" cx="49.47" cy="126.27" r="1.07"/><circle class="a" cx="47.01" cy="123.01" r="1.07"/><circle class="a" cx="44.75" cy="119.62" r="1.06"/><circle class="a" cx="42.68" cy="116.11" r="0.77"/><circle class="a" cx="40.8" cy="112.49" r="0.83"/><circle class="a" cx="39.14" cy="108.76" r="0.83"/><circle class="a" cx="37.68" cy="104.95" r="0.67"/><circle class="a" cx="36.45" cy="101.07" r="0.73"/><circle class="a" cx="35.43" cy="97.12" r="0.53"/><circle class="a" cx="34.63" cy="93.12" r="0.48"/><circle class="a" cx="34.06" cy="89.08" r="0.5"/><circle class="a" cx="33.72" cy="85.02" r="0.48"/><circle class="a" cx="33.6" cy="80.94" r="0.5"/><circle class="a" cx="33.72" cy="76.86" r="0.38"/><circle class="a" cx="34.06" cy="72.8" r="0.38"/><circle class="a" cx="34.63" cy="68.76" r="0.38"/><circle class="a" cx="35.43" cy="64.76" r="0.27"/><circle class="a" cx="36.45" cy="60.81" r="0.33"/><circle class="a" cx="37.68" cy="56.92" r="0.2"/><circle class="a" cx="39.14" cy="53.11" r="0.15"/><circle class="a" cx="40.8" cy="49.39" r="0.2"/><circle class="a" cx="42.67" cy="45.77" r="0.2"/><circle class="a" cx="44.75" cy="42.26" r="0.06"/><circle class="a" cx="47.01" cy="38.86" r="0.02"/><circle class="a" cx="181.85" cy="97.13" r="0.15"/><circle class="a" cx="180.89" cy="101.1" r="0.14"/><circle class="a" cx="179.72" cy="105" r="0.09"/><circle class="a" cx="178.35" cy="108.85" r="0.09"/><circle class="a" cx="176.77" cy="112.61" r="0.53"/><circle class="a" cx="175" cy="116.28" r="0.85"/><circle class="a" cx="173.04" cy="119.86" r="0.7"/><circle class="a" cx="170.9" cy="123.33" r="0.7"/><circle class="a" cx="168.57" cy="126.68" r="0.39"/><circle class="a" cx="166.07" cy="129.9" r="0.6"/><circle class="a" cx="163.4" cy="132.98" r="0.6"/><circle class="a" cx="160.58" cy="135.92" r="0.6"/><circle class="a" cx="157.6" cy="138.71" r="0.76"/><circle class="a" cx="154.48" cy="141.34" r="0.98"/><circle class="a" cx="151.22" cy="143.79" r="0.98"/><circle class="a" cx="147.84" cy="146.08" r="1.1"/><circle class="a" cx="144.35" cy="148.18" r="1.12"/><circle class="a" cx="140.75" cy="150.09" r="1.19"/><circle class="a" cx="137.05" cy="151.81" r="1.19"/><circle class="a" cx="133.27" cy="153.34" r="1.21"/><circle class="a" cx="129.41" cy="154.66" r="1.36"/><circle class="a" cx="125.48" cy="155.77" r="1.29"/><circle class="a" cx="121.51" cy="156.68" r="1.21"/><circle class="a" cx="117.49" cy="157.38" r="1.06"/><circle class="a" cx="113.44" cy="157.86" r="1.19"/><circle class="a" cx="109.37" cy="158.13" r="1.24"/><circle class="a" cx="105.29" cy="158.18" r="1.24"/><circle class="a" cx="101.22" cy="158.02" r="1.32"/><circle class="a" cx="97.16" cy="157.65" r="1.15"/><circle class="a" cx="93.12" cy="157.06" r="1.13"/><circle class="a" cx="89.12" cy="156.25" r="1.25"/><circle class="a" cx="85.17" cy="155.24" r="1.41"/><circle class="a" cx="81.28" cy="154.02" r="1.32"/><circle class="a" cx="77.46" cy="152.6" r="1.28"/><circle class="a" cx="73.71" cy="150.98" r="1.29"/><circle class="a" cx="70.06" cy="149.16" r="1.26"/><circle class="a" cx="66.51" cy="147.15" r="1.45"/><circle class="a" cx="63.08" cy="144.96" r="1.36"/><circle class="a" cx="59.76" cy="142.59" r="1.36"/><circle class="a" cx="56.57" cy="140.04" r="1.22"/><circle class="a" cx="53.52" cy="137.34" r="1.3"/><circle class="a" cx="50.61" cy="134.47" r="1.3"/><circle class="a" cx="47.87" cy="131.46" r="1.16"/><circle class="a" cx="45.28" cy="128.3" r="1.29"/><circle class="a" cx="42.87" cy="125.02" r="1.12"/><circle class="a" cx="40.63" cy="121.61" r="0.98"/><circle class="a" cx="38.58" cy="118.08" r="0.98"/><circle class="a" cx="36.71" cy="114.46" r="0.7"/><circle class="a" cx="35.04" cy="110.74" r="0.76"/><circle class="a" cx="33.56" cy="106.93" r="0.57"/><circle class="a" cx="32.29" cy="103.06" r="0.47"/><circle class="a" cx="31.23" cy="99.12" r="0.38"/><circle class="a" cx="30.37" cy="95.13" r="0.38"/><circle class="a" cx="29.73" cy="91.11" r="0.53"/><circle class="a" cx="29.3" cy="87.05" r="0.42"/><circle class="a" cx="29.09" cy="82.98" r="0.38"/><circle class="a" cx="29.09" cy="78.9" r="0.39"/><circle class="a" cx="29.3" cy="74.83" r="0.33"/><circle class="a" cx="29.73" cy="70.77" r="0.44"/><circle class="a" cx="30.37" cy="66.74" r="0.35"/><circle class="a" cx="31.23" cy="62.76" r="0.23"/><circle class="a" cx="32.29" cy="58.82" r="0.23"/><circle class="a" cx="33.56" cy="54.94" r="0.23"/><circle class="a" cx="35.04" cy="51.14" r="0.11"/><circle class="a" cx="181.69" cy="112.71" r="0.09"/><circle class="a" cx="180.01" cy="116.43" r="0.11"/><circle class="a" cx="178.15" cy="120.06" r="0.06"/><circle class="a" cx="176.11" cy="123.59" r="0.44"/><circle class="a" cx="173.9" cy="127.02" r="0.18"/><circle class="a" cx="171.52" cy="130.33" r="0.79"/><circle class="a" cx="168.97" cy="133.52" r="0.63"/><circle class="a" cx="166.27" cy="136.57" r="0.83"/><circle class="a" cx="163.43" cy="139.49" r="0.85"/><circle class="a" cx="160.44" cy="142.27" r="0.98"/><circle class="a" cx="157.31" cy="144.89" r="0.85"/><circle class="a" cx="154.06" cy="147.35" r="1.24"/><circle class="a" cx="150.69" cy="149.65" r="1.04"/><circle class="a" cx="147.21" cy="151.78" r="1.21"/><circle class="a" cx="143.63" cy="153.73" r="1.18"/><circle class="a" cx="139.95" cy="155.5" r="1.21"/><circle class="a" cx="136.2" cy="157.08" r="1.3"/><circle class="a" cx="132.36" cy="158.48" r="1.36"/><circle class="a" cx="128.47" cy="159.68" r="1.44"/><circle class="a" cx="124.51" cy="160.68" r="1.45"/><circle class="a" cx="120.52" cy="161.49" r="1.32"/><circle class="a" cx="116.48" cy="162.1" r="1.33"/><circle class="a" cx="112.42" cy="162.51" r="1.36"/><circle class="a" cx="108.35" cy="162.71" r="1.3"/><circle class="a" cx="104.27" cy="162.71" r="1.44"/><circle class="a" cx="100.2" cy="162.51" r="1.33"/><circle class="a" cx="96.14" cy="162.1" r="1.33"/><circle class="a" cx="92.11" cy="161.49" r="1.3"/><circle class="a" cx="88.11" cy="160.68" r="1.41"/><circle class="a" cx="84.16" cy="159.68" r="1.39"/><circle class="a" cx="80.26" cy="158.48" r="1.44"/><circle class="a" cx="76.43" cy="157.08" r="1.44"/><circle class="a" cx="72.67" cy="155.5" r="1.47"/><circle class="a" cx="69" cy="153.73" r="1.39"/><circle class="a" cx="65.41" cy="151.78" r="1.47"/><circle class="a" cx="61.93" cy="149.65" r="1.48"/><circle class="a" cx="58.56" cy="147.35" r="1.39"/><circle class="a" cx="55.31" cy="144.89" r="1.35"/><circle class="a" cx="52.19" cy="142.27" r="1.39"/><circle class="a" cx="49.2" cy="139.49" r="1.29"/><circle class="a" cx="46.35" cy="136.57" r="1.28"/><circle class="a" cx="43.65" cy="133.52" r="1.36"/><circle class="a" cx="41.11" cy="130.33" r="1.41"/><circle class="a" cx="38.73" cy="127.02" r="1.41"/><circle class="a" cx="36.52" cy="123.59" r="1.18"/><circle class="a" cx="34.48" cy="120.06" r="1.13"/><circle class="a" cx="32.61" cy="116.43" r="0.7"/><circle class="a" cx="30.94" cy="112.71" r="0.59"/><circle class="a" cx="29.45" cy="108.91" r="0.59"/><circle class="a" cx="28.15" cy="105.05" r="0.59"/><circle class="a" cx="27.04" cy="101.12" r="0.53"/><circle class="a" cx="26.14" cy="97.15" r="0.47"/><circle class="a" cx="25.43" cy="93.13" r="0.35"/><circle class="a" cx="24.92" cy="89.08" r="0.38"/><circle class="a" cx="24.62" cy="85.02" r="0.35"/><circle class="a" cx="24.51" cy="80.94" r="0.33"/><circle class="a" cx="24.62" cy="76.86" r="0.32"/><circle class="a" cx="24.92" cy="72.79" r="0.32"/><circle class="a" cx="25.43" cy="68.75" r="0.27"/><circle class="a" cx="26.14" cy="64.73" r="0.14"/><circle class="a" cx="28.15" cy="56.83" r="0.02"/><circle class="a" cx="181.26" cy="123.81" r="0.02"/><circle class="a" cx="176.88" cy="130.69" r="0.18"/><circle class="a" cx="174.45" cy="133.97" r="0.11"/><circle class="a" cx="171.87" cy="137.13" r="0.27"/><circle class="a" cx="169.14" cy="140.16" r="0.27"/><circle class="a" cx="166.27" cy="143.06" r="0.54"/><circle class="a" cx="163.27" cy="145.82" r="0.71"/><circle class="a" cx="160.15" cy="148.44" r="0.71"/><circle class="a" cx="156.9" cy="150.91" r="1.03"/><circle class="a" cx="153.54" cy="153.22" r="1.04"/><circle class="a" cx="150.07" cy="155.37" r="0.97"/><circle class="a" cx="146.51" cy="157.35" r="0.97"/><circle class="a" cx="142.85" cy="159.17" r="1.07"/><circle class="a" cx="139.12" cy="160.8" r="1.06"/><circle class="a" cx="135.31" cy="162.26" r="1.29"/><circle class="a" cx="131.44" cy="163.54" r="1.25"/><circle class="a" cx="127.51" cy="164.64" r="1.29"/><circle class="a" cx="123.53" cy="165.55" r="1.29"/><circle class="a" cx="119.52" cy="166.26" r="1.33"/><circle class="a" cx="115.47" cy="166.79" r="1.41"/><circle class="a" cx="111.41" cy="167.13" r="1.56"/><circle class="a" cx="107.33" cy="167.27" r="1.54"/><circle class="a" cx="103.25" cy="167.23" r="1.45"/><circle class="a" cx="99.18" cy="166.98" r="1.1"/><circle class="a" cx="95.13" cy="166.55" r="1.24"/><circle class="a" cx="91.1" cy="165.93" r="1.51"/><circle class="a" cx="87.1" cy="165.11" r="1.51"/><circle class="a" cx="83.14" cy="164.11" r="1.57"/><circle class="a" cx="79.24" cy="162.93" r="1.42"/><circle class="a" cx="75.4" cy="161.56" r="1.47"/><circle class="a" cx="71.63" cy="160.01" r="1.5"/><circle class="a" cx="67.93" cy="158.28" r="1.47"/><circle class="a" cx="64.32" cy="156.38" r="1.47"/><circle class="a" cx="60.81" cy="154.32" r="1.42"/><circle class="a" cx="57.39" cy="152.08" r="1.47"/><circle class="a" cx="54.09" cy="149.7" r="1.45"/><circle class="a" cx="50.9" cy="147.15" r="1.44"/><circle class="a" cx="47.83" cy="144.46" r="1.42"/><circle class="a" cx="44.9" cy="141.63" r="1.45"/><circle class="a" cx="42.1" cy="138.66" r="1.41"/><circle class="a" cx="39.45" cy="135.56" r="1.45"/><circle class="a" cx="36.94" cy="132.35" r="1.51"/><circle class="a" cx="34.59" cy="129.01" r="1.41"/><circle class="a" cx="32.4" cy="125.57" r="1.04"/><circle class="a" cx="30.38" cy="122.03" r="0.83"/><circle class="a" cx="28.52" cy="118.4" r="0.83"/><circle class="a" cx="26.84" cy="114.68" r="0.59"/><circle class="a" cx="25.33" cy="110.89" r="0.57"/><circle class="a" cx="24.01" cy="107.04" r="0.53"/><circle class="a" cx="22.87" cy="103.12" r="0.57"/><circle class="a" cx="21.91" cy="99.16" r="0.53"/><circle class="a" cx="21.15" cy="95.15" r="0.53"/><circle class="a" cx="20.57" cy="91.11" r="0.48"/><circle class="a" cx="20.19" cy="87.05" r="0.48"/><circle class="a" cx="19.99" cy="82.98" r="0.32"/><circle class="a" cx="19.99" cy="78.9" r="0.27"/><circle class="a" cx="20.19" cy="74.82" r="0.14"/><circle class="a" cx="20.57" cy="70.76" r="0.05"/><circle class="a" cx="172" cy="143.75" r="0.11"/><circle class="a" cx="166.11" cy="149.38" r="0.24"/><circle class="a" cx="162.98" cy="152" r="0.39"/><circle class="a" cx="159.73" cy="154.47" r="0.15"/><circle class="a" cx="156.38" cy="156.79" r="0.61"/><circle class="a" cx="152.93" cy="158.96" r="0.85"/><circle class="a" cx="149.38" cy="160.97" r="0.79"/><circle class="a" cx="145.75" cy="162.82" r="1.07"/><circle class="a" cx="142.03" cy="164.51" r="0.95"/><circle class="a" cx="138.25" cy="166.03" r="1.09"/><circle class="a" cx="134.4" cy="167.38" r="1.15"/><circle class="a" cx="130.49" cy="168.55" r="1.13"/><circle class="a" cx="126.54" cy="169.55" r="1.22"/><circle class="a" cx="122.54" cy="170.36" r="1.1"/><circle class="a" cx="118.51" cy="171" r="1.3"/><circle class="a" cx="114.46" cy="171.46" r="1.3"/><circle class="a" cx="110.39" cy="171.73" r="1.38"/><circle class="a" cx="106.31" cy="171.82" r="1.38"/><circle class="a" cx="102.23" cy="171.73" r="1.24"/><circle class="a" cx="98.17" cy="171.46" r="1.39"/><circle class="a" cx="94.11" cy="171" r="1.18"/><circle class="a" cx="90.08" cy="170.36" r="1.5"/><circle class="a" cx="86.09" cy="169.55" r="1.69"/><circle class="a" cx="82.13" cy="168.55" r="1.59"/><circle class="a" cx="78.23" cy="167.38" r="1.6"/><circle class="a" cx="74.38" cy="166.03" r="1.36"/><circle class="a" cx="70.59" cy="164.51" r="1.57"/><circle class="a" cx="66.88" cy="162.82" r="1.5"/><circle class="a" cx="63.24" cy="160.97" r="1.32"/><circle class="a" cx="59.7" cy="158.96" r="1.32"/><circle class="a" cx="56.24" cy="156.79" r="1.42"/><circle class="a" cx="52.89" cy="154.47" r="1.47"/><circle class="a" cx="49.65" cy="152" r="1.5"/><circle class="a" cx="46.51" cy="149.38" r="1.5"/><circle class="a" cx="43.5" cy="146.63" r="1.54"/><circle class="a" cx="40.62" cy="143.75" r="1.48"/><circle class="a" cx="37.87" cy="140.74" r="1.48"/><circle class="a" cx="35.25" cy="137.6" r="1.47"/><circle class="a" cx="32.78" cy="134.36" r="1.51"/><circle class="a" cx="30.46" cy="131.01" r="1.07"/><circle class="a" cx="28.29" cy="127.55" r="1.07"/><circle class="a" cx="26.28" cy="124.01" r="0.95"/><circle class="a" cx="24.43" cy="120.37" r="0.88"/><circle class="a" cx="22.74" cy="116.66" r="0.73"/><circle class="a" cx="21.22" cy="112.87" r="0.76"/><circle class="a" cx="19.87" cy="109.02" r="0.76"/><circle class="a" cx="18.7" cy="105.12" r="0.2"/><circle class="a" cx="17.71" cy="101.16" r="0.27"/><circle class="a" cx="16.89" cy="97.17" r="0.18"/><circle class="a" cx="16.25" cy="93.14" r="0.14"/><circle class="a" cx="15.79" cy="89.09" r="0.09"/><circle class="a" cx="15.52" cy="85.02" r="0.05"/><circle class="a" cx="162.57" cy="158.02" r="0.15"/><circle class="a" cx="159.22" cy="160.36" r="0.27"/><circle class="a" cx="155.78" cy="162.54" r="0.27"/><circle class="a" cx="152.25" cy="164.58" r="0.24"/><circle class="a" cx="148.63" cy="166.47" r="0.7"/><circle class="a" cx="144.94" cy="168.2" r="0.23"/><circle class="a" cx="141.18" cy="169.77" r="0.71"/><circle class="a" cx="137.35" cy="171.18" r="0.71"/><circle class="a" cx="133.46" cy="172.42" r="0.09"/><circle class="a" cx="129.53" cy="173.5" r="0.38"/><circle class="a" cx="125.55" cy="174.41" r="0.76"/><circle class="a" cx="121.54" cy="175.14" r="1.07"/><circle class="a" cx="117.5" cy="175.71" r="1.35"/><circle class="a" cx="113.44" cy="176.1" r="1.38"/><circle class="a" cx="109.37" cy="176.32" r="1.29"/><circle class="a" cx="105.29" cy="176.36" r="1.29"/><circle class="a" cx="101.22" cy="176.23" r="1.41"/><circle class="a" cx="97.15" cy="175.93" r="1.5"/><circle class="a" cx="93.1" cy="175.45" r="1.44"/><circle class="a" cx="89.07" cy="174.8" r="1.39"/><circle class="a" cx="85.08" cy="173.98" r="1.54"/><circle class="a" cx="81.12" cy="172.98" r="1.53"/><circle class="a" cx="77.21" cy="171.82" r="1.44"/><circle class="a" cx="73.35" cy="170.5" r="1.44"/><circle class="a" cx="69.56" cy="169.01" r="1.56"/><circle class="a" cx="65.83" cy="167.36" r="1.47"/><circle class="a" cx="62.17" cy="165.55" r="1.51"/><circle class="a" cx="58.6" cy="163.58" r="1.53"/><circle class="a" cx="55.11" cy="161.47" r="1.57"/><circle class="a" cx="51.71" cy="159.21" r="1.57"/><circle class="a" cx="48.42" cy="156.8" r="1.59"/><circle class="a" cx="45.23" cy="154.26" r="1.36"/><circle class="a" cx="42.15" cy="151.58" r="1.47"/><circle class="a" cx="39.19" cy="148.78" r="1.54"/><circle class="a" cx="36.36" cy="145.85" r="1.18"/><circle class="a" cx="33.65" cy="142.8" r="1.47"/><circle class="a" cx="31.07" cy="139.64" r="1.19"/><circle class="a" cx="28.63" cy="136.37" r="1.19"/><circle class="a" cx="26.33" cy="133" r="0.59"/><circle class="a" cx="24.18" cy="129.53" r="0.91"/><circle class="a" cx="22.18" cy="125.98" r="0.27"/><circle class="a" cx="20.33" cy="122.34" r="0.57"/><circle class="a" cx="18.64" cy="118.63" r="0.02"/><circle class="a" cx="17.11" cy="114.85" r="0.05"/><circle class="a" cx="15.74" cy="111.01" r="0.09"/><circle class="a" cx="14.54" cy="107.11" r="0.2"/><circle class="a" cx="147.84" cy="171.88" r="0.01"/><circle class="a" cx="140.29" cy="174.96" r="0.02"/><circle class="a" cx="136.43" cy="176.27" r="0.09"/><circle class="a" cx="120.54" cy="179.89" r="0.05"/><circle class="a" cx="116.49" cy="180.39" r="0.05"/><circle class="a" cx="112.43" cy="180.73" r="0.15"/><circle class="a" cx="108.35" cy="180.89" r="0.47"/><circle class="a" cx="104.27" cy="180.89" r="0.47"/><circle class="a" cx="100.2" cy="180.73" r="0.38"/><circle class="a" cx="96.13" cy="180.39" r="0.38"/><circle class="a" cx="92.08" cy="179.9" r="0.42"/><circle class="a" cx="88.06" cy="179.23" r="0.54"/><circle class="a" cx="84.07" cy="178.41" r="0.73"/><circle class="a" cx="80.11" cy="177.42" r="0.48"/><circle class="a" cx="76.19" cy="176.27" r="1.57"/><circle class="a" cx="72.33" cy="174.96" r="1.19"/><circle class="a" cx="68.52" cy="173.5" r="0.57"/><circle class="a" cx="64.78" cy="171.88" r="1.62"/><circle class="a" cx="61.11" cy="170.11" r="1.33"/><circle class="a" cx="57.51" cy="168.19" r="0.44"/><circle class="a" cx="53.99" cy="166.13" r="0.83"/><circle class="a" cx="50.56" cy="163.92" r="0.2"/><circle class="a" cx="47.22" cy="161.58" r="1.39"/><circle class="a" cx="43.98" cy="159.1" r="0.8"/><circle class="a" cx="40.84" cy="156.49" r="0.92"/><circle class="a" cx="37.81" cy="153.76" r="1.33"/><circle class="a" cx="34.9" cy="150.91" r="0.35"/><circle class="a" cx="32.11" cy="147.93" r="0.11"/><circle class="a" cx="29.44" cy="144.85" r="0.53"/><circle class="a" cx="26.89" cy="141.66" r="0.02"/><circle class="a" cx="24.48" cy="138.37" r="0.14"/><circle class="a" cx="22.21" cy="134.99" r="0.05"/><circle class="a" cx="20.07" cy="131.51" r="0.05"/><circle class="a" cx="14.54" cy="120.61" r="0.02"/><circle class="a" cx="75.18" cy="180.71" r="0.14"/><circle class="a" cx="71.31" cy="179.42" r="0.05"/><circle class="a" cx="67.5" cy="177.98" r="0.02"/><circle class="a" cx="63.74" cy="176.39" r="0.11"/><circle class="a" cx="60.05" cy="174.66" r="0.11"/><circle class="a" cx="56.42" cy="172.78" r="0.01"/><circle class="a" cx="52.88" cy="170.77" r="0.09"/><circle class="a" cx="49.42" cy="168.61" r="0.05"/><circle class="a" cx="46.04" cy="166.33" r="0.05"/><circle class="a" cx="42.75" cy="163.91" r="0.05"/><circle class="a" cx="39.56" cy="161.37" r="0.09"/><circle class="a" cx="36.48" cy="158.7" r="0.02"/><circle class="a" cx="33.5" cy="155.92" r="0.02"/><circle class="a" cx="30.63" cy="153.02" r="0.02"/><circle class="a" cx="27.87" cy="150.01" r="0.01"/><circle class="a" cx="22.72" cy="143.68" r="0.01"/><circle class="a" cx="58.99" cy="179.2" r="0.02"/><circle class="a" cx="55.35" cy="177.36" r="0.01"/><path class="a" d="M51.78,175.41l0,0,0,0v0Z"/><circle class="a" cx="48.29" cy="173.28" r="0.02"/><circle class="a" cx="44.87" cy="171.05" r="0.01"/><circle class="a" cx="41.55" cy="168.69" r="0.01"/><circle class="a" cx="38.31" cy="166.21" r="0.01"/><circle class="a" cx="26.36" cy="155.12" r="0.02"/><circle class="a" cx="23.65" cy="152.08" r="0.02"/><circle class="a" cx="21.04" cy="148.94" r="0.02"/><circle class="a" cx="54.28" cy="181.93" r="0.02"/><circle class="a" cx="33.9" cy="168.47" r="0.06"/><circle class="a" cx="22.11" cy="157.21" r="0.02"/><circle class="a" cx="19.43" cy="154.14" r="0.02"/><circle class="a" cx="35.88" cy="175.8" r="0.01"/><circle class="a" cx="32.65" cy="173.31" r="0.02"/><circle class="a" cx="10.25" cy="149.72" r="0.02"/><circle class="a" cx="7.93" cy="146.37" r="0.02"/><path class="b" d="M51.93,100.38a7.12,7.12,0,0,1-5.1,2.38A6.56,6.56,0,1,1,53.4,96.2V102a.72.72,0,0,1-.73.73.72.72,0,0,1-.52-.21.69.69,0,0,1-.22-.52Zm-5.1-9.29a5.1,5.1,0,1,0,3.61,1.5A4.92,4.92,0,0,0,46.83,91.09Z"/><path class="b" d="M55.28,90.36a.73.73,0,1,1,1.45,0v1.36a6.57,6.57,0,0,1,4.62-2.09,6.1,6.1,0,0,1,6.08,6.08V102a.69.69,0,0,1-.22.52.72.72,0,0,1-.52.21A.72.72,0,0,1,66,102V95.72a4.37,4.37,0,0,0-1.36-3.26,4.61,4.61,0,0,0-7.87,3.26V102a.73.73,0,1,1-1.45,0Z"/><path class="b" d="M74.14,102,69.39,90.66a1,1,0,0,1,0-.29.69.69,0,0,1,.22-.52.72.72,0,0,1,.52-.21.7.7,0,0,1,.52.21.81.81,0,0,1,.18.29l4.16,10,4.16-10a.87.87,0,0,1,.2-.32.68.68,0,0,1,.5-.19.7.7,0,0,1,.52.21.74.74,0,0,1,.22.52.82.82,0,0,1,0,.26l-7.22,17.27a.73.73,0,0,1-.69.49.72.72,0,0,1-.73-.73.63.63,0,0,1,0-.26Z"/><path class="b" d="M90.43,89.84a.71.71,0,0,1,.5-.2.68.68,0,0,1,.5.2.88.88,0,0,1,.21.36l3.18,9.53L98,90.06a.62.62,0,0,1,.14-.21.73.73,0,0,1,.54-.21.72.72,0,0,1,.73.73.91.91,0,0,1-.06.3L95.5,102.3a.7.7,0,0,1-.18.27.68.68,0,0,1-.5.19.7.7,0,0,1-.52-.2.73.73,0,0,1-.16-.26l-3.21-9.63-3.21,9.63a.62.62,0,0,1-.15.25.72.72,0,0,1-.53.21.7.7,0,0,1-.52-.2.73.73,0,0,1-.16-.26L82.48,90.67a1,1,0,0,1-.06-.3.72.72,0,0,1,.73-.73.74.74,0,0,1,.53.21.68.68,0,0,1,.14.22L87,99.73l3.18-9.53A1,1,0,0,1,90.43,89.84Z"/><path class="b" d="M111.51,99.94a.69.69,0,0,1,.52.22.72.72,0,0,1,.21.52.71.71,0,0,1-.19.5,6.57,6.57,0,1,1,2.29-5,.72.72,0,0,1-.73.73H102.68a5.49,5.49,0,0,0,1.48,2.88,4.92,4.92,0,0,0,3.61,1.5,4.88,4.88,0,0,0,3.28-1.21A.7.7,0,0,1,111.51,99.94Zm1.34-4.46a5.37,5.37,0,0,0-1.46-2.88,5.09,5.09,0,0,0-7.22,0,5.49,5.49,0,0,0-1.48,2.88Z"/><path class="b" d="M119,86.47a1,1,0,0,1-1.66.69,1,1,0,1,1,1.38-1.38A1,1,0,0,1,119,86.47Zm-1.7,3.89a.72.72,0,0,1,.73-.73.72.72,0,0,1,.52.21.69.69,0,0,1,.22.52V102a.69.69,0,0,1-.22.52.72.72,0,0,1-.52.21.72.72,0,0,1-.73-.73Z"/><path class="a" d="M126.53,113.66a3.13,3.13,0,0,1-4.39,0,2.94,2.94,0,0,1-.91-2.18,3.07,3.07,0,0,1,.67-2l14.33-18.4L121.81,72.62a3.08,3.08,0,0,1-.56-1.82,3.1,3.1,0,0,1,3.11-3.11,2.76,2.76,0,0,1,2.2.91l13.62,17.46L153.8,68.6a2.82,2.82,0,0,1,2.2-.91,3,3,0,0,1,2.18.91,3,3,0,0,1,.89,2.2,3.08,3.08,0,0,1-.56,1.82L144.14,91.13l14.33,18.4a3.16,3.16,0,0,1,.64,2,3.05,3.05,0,0,1-3.08,3.08,2.92,2.92,0,0,1-2.43-1.11L140.18,96.2Z"/></svg>